HIERARCHY
ROOT root
{
	OFFSET 0.000000 0.000000 0.000000
	CHANNELS 6 Xposition Yposition Zposition Zrotation Yrotation Xrotation
	JOINT lhip
	{
		OFFSET 0.058581 -0.082280 -0.017664
		CHANNELS 3 Zrotation Yrotation Xrotation
		JOINT lknee
		{
			OFFSET 0.043451 -0.386469 0.008037
			CHANNELS 3 Zrotation Yrotation Xrotation
			JOINT lankle
			{
				OFFSET -0.014790 -0.426874 -0.037428
				CHANNELS 3 Zrotation Yrotation Xrotation
				JOINT ltoe
				{
					OFFSET 0.041054 -0.060286 0.122042
					CHANNELS 3 Zrotation Yrotation Xrotation
					End Site
					{
						OFFSET 0.000000 0.000000 0.000000
					}
				}
			}
		}
	}
	JOINT rhip
	{
		OFFSET -0.060310 -0.090513 -0.013543
		CHANNELS 3 Zrotation Yrotation Xrotation
		JOINT rknee
		{
			OFFSET -0.043257 -0.383688 -0.004843
			CHANNELS 3 Zrotation Yrotation Xrotation
			JOINT rankle
			{
				OFFSET 0.019056 -0.420046 -0.034562
				CHANNELS 3 Zrotation Yrotation Xrotation
				JOINT rtoe
				{
					OFFSET -0.034840 -0.062106 0.130323
					CHANNELS 3 Zrotation Yrotation Xrotation
					End Site
					{
						OFFSET 0.000000 0.000000 0.000000
					}
				}
			}
		}
	}
	JOINT lowerback
	{
		OFFSET 0.004439 0.124404 -0.038385
		CHANNELS 3 Zrotation Yrotation Xrotation
		JOINT upperback
		{
			OFFSET 0.004488 0.137956 0.026820
			CHANNELS 3 Zrotation Yrotation Xrotation
			JOINT chest
			{
				OFFSET -0.002265 0.056032 0.002855
				CHANNELS 3 Zrotation Yrotation Xrotation
				JOINT lowerneck
				{
					OFFSET -0.013390 0.211636 -0.033468
					CHANNELS 3 Zrotation Yrotation Xrotation
					JOINT upperneck
					{
						OFFSET 0.010113 0.088937 0.050410
						CHANNELS 3 Zrotation Yrotation Xrotation
						End Site
						{
							OFFSET 0.000000 0.000000 0.000000
						}
					}
				}
				JOINT lclavicle
				{
					OFFSET 0.071702 0.114000 -0.018898
					CHANNELS 3 Zrotation Yrotation Xrotation
					JOINT lshoulder
					{
						OFFSET 0.122921 0.045205 -0.019046
						CHANNELS 3 Zrotation Yrotation Xrotation
						JOINT lelbow
						{
							OFFSET 0.255332 -0.015649 -0.022946
							CHANNELS 3 Zrotation Yrotation Xrotation
							JOINT lwrist
							{
								OFFSET 0.265709 0.012698 -0.007375
								CHANNELS 3 Zrotation Yrotation Xrotation
								End Site
								{
									OFFSET 0.000000 0.000000 0.000000
								}
							}
						}
					}
				}
				JOINT rclavicle
				{
					OFFSET -0.082954 0.112472 -0.023707
					CHANNELS 3 Zrotation Yrotation Xrotation
					JOINT rshoulder
					{
						OFFSET -0.113228 0.046853 -0.008472
						CHANNELS 3 Zrotation Yrotation Xrotation
						JOINT relbow
						{
							OFFSET -0.260127 -0.014369 -0.031269
							CHANNELS 3 Zrotation Yrotation Xrotation
							JOINT rwrist
							{
								OFFSET -0.269108 0.006794 -0.006027
								CHANNELS 3 Zrotation Yrotation Xrotation
								End Site
								{
									OFFSET 0.000000 0.000000 0.000000
								}
							}
						}
					}
				}
			}
		}
	}
}
MOTION
Frames: 14
Frame Time: 0.033333
-0.032179 0.095717 0.733442 6.670421 3.845160 94.008063 1.575498 -3.230898 14.249109 -28.098697 -14.003735 68.217234 -3.020482 2.234812 -17.659758 0.000000 -0.000000 0.000000 -17.510638 9.584297 -83.604737 -4.810253 -29.108649 99.317238 1.943995 -2.834569 -21.947334 0.000000 -0.000000 0.000000 1.625674 -9.845894 37.483908 -0.601361 8.237638 -14.928643 0.989054 -2.985362 0.411216 -7.891755 1.351374 -2.105132 -8.106386 -1.375532 -5.445498 -19.060901 -12.025428 -2.893455 -28.841302 -18.950619 -4.618659 26.654376 -1.786212 -48.705185 -12.170448 4.162932 -16.805407 16.667499 14.171780 -1.746959 24.831174 5.633867 3.762127 -6.402357 14.934829 -14.359994 24.854717 6.717050 -25.046589 
-0.029944 0.092490 0.721286 7.406057 3.905009 93.324734 1.996628 -2.638456 15.084351 -29.013970 -14.305258 70.292645 -3.994382 3.311991 -18.580356 0.000000 -0.000000 0.000000 -17.772252 8.816480 -84.033237 -5.364083 -29.297673 101.994259 1.996455 -3.268409 -23.323725 0.000000 -0.000000 0.000000 1.764325 -10.131081 39.100586 -0.943406 8.411230 -16.638901 1.028711 -2.848025 1.475027 -8.474345 1.192306 -1.390927 -7.824504 -1.791257 -5.819200 -18.561341 -10.541175 -4.356061 -25.745349 -17.524054 -7.513673 26.451050 0.434629 -51.401849 -6.366015 5.358623 -13.500324 16.229031 11.884586 -2.891435 23.164104 1.638853 1.758942 -5.906565 11.505653 -15.583191 21.066034 3.342470 -23.288481 
-0.027516 0.088747 0.710906 7.942658 3.830833 92.967575 2.534657 -1.985287 15.582491 -30.120421 -14.597387 71.940771 -4.006738 3.516180 -18.545952 0.000000 -0.000000 0.000000 -17.965278 8.072512 -84.549139 -5.409590 -29.275229 104.196823 1.654289 -3.585466 -24.401486 0.000000 -0.000000 0.000000 1.808045 -10.183469 39.471027 -1.117430 8.378755 -17.319708 1.062242 -2.772333 1.994864 -9.202283 0.871343 0.012551 -7.634406 -1.959899 -6.507719 -17.318547 -9.195440 -5.320206 -23.293922 -15.918062 -10.110521 26.008782 1.739957 -54.078398 -0.296540 6.051216 -10.235290 15.177873 9.779116 -3.607450 22.078260 -1.960477 -0.810693 -5.600824 8.782458 -18.240399 17.109281 0.685188 -21.591477 
-0.025239 0.084480 0.703124 8.344426 3.694795 92.330317 3.178493 -1.691636 16.391232 -31.804513 -15.140198 73.069770 -4.145014 3.001173 -18.127048 0.000000 -0.000000 0.000000 -18.051812 7.709251 -84.469813 -5.785263 -29.647265 106.242744 1.473353 -4.454188 -25.309884 0.000000 -0.000000 0.000000 1.593262 -10.318089 40.050368 -1.408852 8.272556 -18.443189 0.916500 -2.720585 3.231082 -9.708451 0.689671 0.003539 -6.982577 -2.351398 -6.001806 -15.453999 -7.632850 -7.481770 -21.585901 -15.155257 -11.712349 25.827868 3.422975 -55.513151 8.282625 5.803300 -4.201495 14.247260 7.966227 -4.908577 20.710260 -5.124248 -2.604493 -4.894560 5.592262 -20.662456 14.022405 -0.547580 -18.653092 
-0.023423 0.080873 0.697666 8.621494 3.467154 91.751186 4.077984 -1.303454 17.027793 -33.262004 -15.791408 73.891460 -4.470408 1.747347 -17.524694 0.000000 -0.000000 0.000000 -17.621436 7.422874 -84.532788 -6.126317 -29.378969 107.849201 0.901955 -5.907976 -25.612618 0.000000 -0.000000 0.000000 1.158693 -10.318169 40.163433 -1.690047 8.065175 -18.942504 0.980810 -2.759706 3.846825 -10.492255 0.138627 1.612481 -7.160917 -1.697888 -6.572691 -13.801042 -6.621236 -8.366501 -19.724028 -14.081104 -13.309439 25.588355 4.503794 -55.334210 19.090982 2.947171 4.198118 12.607388 6.531598 -4.759739 19.835995 -7.850551 -4.447588 -3.326971 2.836190 -21.703462 8.311677 -1.787457 -14.637906 
-0.022148 0.077553 0.694579 8.959699 3.226426 91.198573 4.892695 -1.025703 17.813438 -34.503063 -16.812319 74.167292 -5.420264 1.040105 -16.650607 0.000000 -0.000000 0.000000 -17.551564 7.325894 -84.474374 -7.062353 -29.222486 109.384803 0.983109 -6.812956 -25.414684 0.000000 -0.000000 0.000000 0.684946 -10.408191 40.613701 -2.146553 7.750640 -19.966312 0.748483 -2.761038 5.023303 -10.670216 0.788441 2.066309 -6.704964 -2.586102 -6.596241 -12.309662 -5.886949 -9.426143 -17.294895 -12.900548 -14.181529 25.744898 5.530164 -56.597916 28.232682 -2.408663 9.113195 11.769273 5.350415 -5.170597 18.302616 -10.335428 -5.079663 -1.314423 0.253775 -22.521836 -3.135492 -3.884029 -9.443070 
-0.020729 0.076066 0.694093 9.523270 3.045167 91.072432 5.334261 -0.785778 17.839330 -35.423806 -17.963915 74.729332 -6.240392 0.547201 -16.400854 0.000000 -0.000000 0.000000 -17.386653 6.983461 -84.384393 -8.388055 -29.065410 110.389545 1.405924 -7.823496 -24.950655 0.000000 -0.000000 0.000000 0.445895 -10.502502 40.881188 -2.580586 7.372395 -20.755115 0.718815 -2.931011 5.566382 -10.833080 0.077725 5.036432 -6.980373 -2.605823 -8.693638 -11.844387 -5.287524 -9.033073 -14.278362 -11.281393 -15.456178 25.779953 4.817717 -56.268507 33.289782 -7.258765 11.150679 10.560561 4.150615 -4.475657 17.401965 -11.919321 -6.958051 -0.045533 -2.749175 -24.718853 -19.422885 -4.742226 -2.759791 
-0.020198 0.075530 0.696180 10.077545 3.237507 91.365890 5.850047 -0.881856 17.633531 -36.163800 -19.197621 74.907205 -6.874856 0.194613 -16.500927 0.000000 -0.000000 0.000000 -16.840433 6.799195 -84.334340 -9.757764 -29.281315 110.573207 1.515952 -9.424395 -24.436562 0.000000 -0.000000 0.000000 0.362405 -10.710617 40.995792 -2.894241 7.071743 -21.874491 0.182429 -2.731827 6.750623 -10.837431 2.056362 3.252465 -6.198797 -4.549816 -7.088039 -10.549263 -4.416976 -10.320332 -12.348964 -10.207461 -15.404206 25.320049 3.572605 -54.285893 35.892676 -10.574082 12.304591 10.862397 2.922958 -4.956311 15.645304 -13.354830 -8.092767 0.138112 -5.449580 -26.518381 -32.560449 -3.349843 2.424932 
-0.020476 0.075886 0.700532 10.553226 3.809645 91.751997 6.409937 -1.592928 17.508317 -36.651911 -20.475687 74.391830 -7.462801 -0.290661 -17.012759 0.000000 -0.000000 0.000000 -16.145736 6.931653 -84.024615 -11.137479 -29.933251 109.988445 1.534784 -10.936825 -23.950386 0.000000 -0.000000 0.000000 0.282176 -10.481733 40.914967 -2.911366 6.914653 -21.787040 0.417118 -2.772330 6.302799 -10.947976 1.983079 5.017910 -6.035416 -4.205893 -8.198418 -9.399525 -4.145184 -9.684122 -11.305582 -9.584385 -16.254649 25.080477 3.402780 -53.523927 36.985061 -12.067934 12.750129 9.417750 1.945148 -3.682741 16.085125 -14.820340 -9.699854 -0.339210 -6.815696 -27.645807 -39.245361 -2.333253 4.630050 
-0.021114 0.077135 0.706425 10.950461 4.518059 92.636612 6.726924 -2.283724 16.608020 -36.796627 -21.677722 73.966417 -7.593070 -0.356666 -16.959815 0.000000 -0.000000 0.000000 -15.461527 7.208745 -83.968966 -11.303221 -30.364711 108.174791 1.311887 -11.910897 -23.823829 0.000000 -0.000000 0.000000 0.413245 -10.329169 40.371840 -2.940572 6.876819 -21.669810 0.437023 -2.929664 6.343512 -10.894283 2.303366 4.877478 -5.872380 -4.183806 -8.345623 -8.596309 -3.822027 -9.687982 -10.646939 -9.282103 -16.325003 24.973922 3.422188 -53.374249 37.326475 -12.759777 13.553491 8.706675 1.010323 -3.340706 16.273081 -15.766480 -9.856566 -0.553648 -6.960624 -28.071091 -41.278418 -2.352456 5.021538 
-0.021479 0.078707 0.714994 11.222694 5.279421 93.354504 6.834951 -2.902687 16.016803 -36.869045 -23.049812 73.278119 -7.747714 0.063431 -17.016621 0.000000 -0.000000 0.000000 -14.632867 7.679298 -83.373639 -11.060377 -30.786654 105.733465 1.250228 -12.841720 -23.514225 0.000000 -0.000000 0.000000 0.429474 -10.160563 40.108666 -2.934425 6.831476 -21.504690 0.523349 -3.049215 6.231870 -10.823170 2.710340 4.715468 -5.378528 -4.422606 -8.320559 -8.237967 -3.790488 -9.682474 -10.401927 -9.085130 -16.096055 24.825627 3.355533 -52.862311 37.788869 -12.855039 13.443184 8.626651 0.559302 -3.021927 16.510406 -16.274436 -9.575292 -0.502762 -6.417276 -27.693434 -42.603983 -2.483511 4.779640 
-0.021700 0.079979 0.726060 11.430173 5.920958 94.042400 6.820439 -3.389862 15.596351 -36.063039 -24.247649 71.773033 -7.671474 0.536625 -16.293986 0.000000 -0.000000 0.000000 -13.644769 8.107788 -82.352948 -10.499421 -31.065069 102.779318 1.148811 -13.520318 -22.980751 0.000000 -0.000000 0.000000 0.082213 -9.806017 39.758442 -2.724064 6.654201 -21.211844 0.663756 -3.206392 6.260328 -10.306734 3.118425 3.556820 -4.641044 -4.911219 -8.081793 -8.465614 -3.626896 -9.589768 -10.523405 -9.474189 -15.792685 24.852240 2.775553 -52.646928 38.693286 -12.654781 12.922165 9.485486 0.575128 -3.090892 16.666668 -15.709690 -8.894356 -0.895207 -6.323140 -27.624870 -43.592260 -2.343138 4.886061 
-0.021509 0.081177 0.738944 11.678953 6.423803 94.951126 6.913855 -3.872430 15.430571 -34.754715 -25.630945 69.124549 -7.347355 1.199113 -16.210114 0.000000 -0.000000 0.000000 -12.730810 8.508633 -81.196021 -9.776028 -31.216823 99.309032 1.134543 -14.030651 -22.527765 0.000000 -0.000000 0.000000 -0.415544 -9.426360 39.034241 -2.430892 6.418489 -20.490500 1.017368 -3.426514 5.716431 -9.563935 3.156419 2.535386 -4.476793 -4.540761 -7.444216 -9.277290 -3.847417 -9.164011 -11.071623 -10.072245 -15.682423 25.211000 2.157853 -52.303068 39.183977 -12.472272 12.666019 10.348639 0.940330 -2.832585 17.412047 -14.685678 -8.464907 -1.192576 -5.922318 -27.662123 -44.929591 -2.198203 4.804074 
-0.020764 0.082510 0.753309 12.144791 7.049738 96.238493 7.154947 -4.592838 15.223146 -33.552565 -27.521410 66.009715 -7.146314 2.019027 -16.312728 0.000000 -0.000000 0.000000 -11.709615 8.923948 -80.072906 -8.749410 -31.294833 94.990391 0.910209 -14.883469 -22.408055 0.000000 -0.000000 0.000000 -0.594944 -9.412548 37.753746 -2.118881 6.204802 -19.674222 1.283221 -3.618972 5.045767 -8.899424 3.101460 1.193311 -4.323014 -3.941430 -7.066412 -10.470868 -4.419051 -8.571977 -12.027079 -11.063455 -15.515554 25.579262 2.176703 -51.727787 39.514056 -12.412144 12.747969 11.563417 1.607278 -2.396625 18.245620 -13.292699 -8.304815 -1.241803 -5.080586 -27.678750 -45.678137 -2.308441 4.150617 
